<?xml version="1.0" encoding="UTF-8"?>
<svg version="1.1" xmlns="http://www.w3.org/2000/svg" width="360" height="360">
<path d="M0 0 C22.99871632 20.65258291 37.62518201 50.05336058 39.40429688 81.06079102 C41.0080145 115.12069858 29.830455 145.86402133 7.09179688 171.18579102 C-13.3890966 193.29328713 -42.37520439 207.37959638 -72.59570312 209.06079102 C-94.38621144 209.82822621 -113.91243238 205.44124263 -133.83105469 196.81762695 C-136.06983637 195.85744112 -138.32859208 194.95175684 -140.59570312 194.06079102 C-140.59570312 193.40079102 -140.59570312 192.74079102 -140.59570312 192.06079102 C-141.31628906 191.80168945 -142.036875 191.54258789 -142.77929688 191.27563477 C-165.83716664 181.32972978 -183.25870607 155.92302956 -192.27294922 133.40014648 C-204.00964468 102.75936113 -203.16637493 69.98733636 -190.29101562 39.76391602 C-185.74820084 29.58414925 -179.92618592 20.47418604 -172.59570312 12.06079102 C-171.51289063 10.7962207 -171.51289063 10.7962207 -170.40820312 9.50610352 C-150.28605435 -13.48065671 -122.05879719 -28.20899613 -91.45507812 -30.77514648 C-57.08910883 -32.74696439 -25.98241722 -22.74286869 0 0 Z " fill="#E60222" transform="translate(260.595703125,90.939208984375)"/>
<path d="M0 0 C7.34918342 -0.43230491 13.90215087 1.18225815 21 3 C20.67 4.32 20.34 5.64 20 7 C20.87398437 7.20302734 20.87398437 7.20302734 21.765625 7.41015625 C28.31835751 9.13076369 33.60144686 11.89061453 39.3359375 15.4765625 C41.64825252 16.79885408 43.40306909 17.54461401 46 18 C46.33 17.34 46.66 16.68 47 16 C48.9684831 17.71866032 50.9243097 19.44884125 52.875 21.1875 C53.43058594 21.67025391 53.98617187 22.15300781 54.55859375 22.65039062 C58.56623378 26.24760968 60.48923449 29.11014248 61.4453125 34.51953125 C62.09139756 37.40871444 63.24092774 39.2282619 64.875 41.6875 C67.94503561 46.59512904 69.6410749 51.39741406 71 57 C72.65 57.33 74.3 57.66 76 58 C77.6120509 64.76485645 78.26618595 71.04958914 78 78 C77.01 78.33 76.02 78.66 75 79 C74.96261719 79.94359375 74.92523438 80.8871875 74.88671875 81.859375 C74.45729252 90.24581664 73.39764002 97.90231011 71 106 C71.99 106.33 72.98 106.66 74 107 C73.06614465 109.06415277 72.12775697 111.12625539 71.1875 113.1875 C70.66542969 114.33605469 70.14335937 115.48460937 69.60546875 116.66796875 C69.07566406 117.76753906 68.54585937 118.86710937 68 120 C67.54238281 120.96550781 67.08476562 121.93101562 66.61328125 122.92578125 C65.81470703 123.95251953 65.81470703 123.95251953 65 125 C63.33379814 125.0393591 61.66621616 125.03874921 60 125 C58.15555127 126.71508867 58.15555127 126.71508867 56.6875 129.0625 C53.02132805 134.15172554 48.70215359 139.14892321 43 142 C43 143.65 43 145.3 43 147 C37.19955587 150.48026648 31.18554594 153.27075369 25 156 C24.67 155.01 24.34 154.02 24 153 C23.30777344 153.20496094 22.61554688 153.40992188 21.90234375 153.62109375 C13.53884377 155.9240865 5.63076758 156.65807068 -3 157 C-3.33 157.99 -3.66 158.98 -4 160 C-10.95041086 160.26618595 -17.23514355 159.6120509 -24 158 C-24.495 155.525 -24.495 155.525 -25 153 C-25.60585937 152.85304687 -26.21171875 152.70609375 -26.8359375 152.5546875 C-32.76082668 150.96864024 -37.53454931 148.74202004 -42.67578125 145.40234375 C-45.0498512 143.96992171 -47.40353789 142.96046121 -50 142 C-50.33 142.66 -50.66 143.32 -51 144 C-52.94470746 142.27840626 -54.88057309 140.54833744 -56.8125 138.8125 C-57.35970703 138.32974609 -57.90691406 137.84699219 -58.47070312 137.34960938 C-61.64287965 134.48503784 -63.99749208 131.84340994 -66 128 C-65.34 128 -64.68 128 -64 128 C-66.0293686 123.1444555 -68.23160111 118.43538257 -70.625 113.75 C-73.86607143 107.40178571 -73.86607143 107.40178571 -75 104 C-75.9590625 103.814375 -75.9590625 103.814375 -76.9375 103.625 C-79 103 -79 103 -80.08984375 100.98046875 C-81.24650784 97.19276617 -81.45603063 93.62659833 -81.625 89.6875 C-81.66367188 88.94693359 -81.70234375 88.20636719 -81.7421875 87.44335938 C-81.83581705 85.62928691 -81.91896851 83.81467884 -82 82 C-80.515 81.505 -80.515 81.505 -79 81 C-78.9498877 80.43079834 -78.89977539 79.86159668 -78.84814453 79.27514648 C-78.61407662 76.66191893 -78.3696142 74.04976061 -78.125 71.4375 C-78.04636719 70.54224609 -77.96773438 69.64699219 -77.88671875 68.72460938 C-77.39701859 63.58275764 -76.60387383 58.91270599 -75 54 C-75.99 54 -76.98 54 -78 54 C-76.33509886 46.88633148 -73.03505157 41.05257736 -69 35 C-67.35 35.33 -65.7 35.66 -64 36 C-63.75894531 35.443125 -63.51789063 34.88625 -63.26953125 34.3125 C-61.7273879 31.50342658 -59.83984947 29.37301051 -57.6875 27 C-56.92824219 26.154375 -56.16898438 25.30875 -55.38671875 24.4375 C-53 22 -53 22 -50.45703125 20 C-47.9095056 18.09548846 -47.9095056 18.09548846 -46.140625 15.484375 C-43.45044408 12.36219423 -40.4409329 10.89287033 -36.75 9.25 C-36.11964844 8.94707031 -35.48929688 8.64414063 -34.83984375 8.33203125 C-30.18594386 6.19938873 -26.09084589 5.47791615 -21 5 C-20.17113281 4.81566406 -19.34226563 4.63132812 -18.48828125 4.44140625 C-15.0551743 3.83239356 -11.66032834 3.89429735 -8.1875 3.9375 C-7.49462891 3.94201172 -6.80175781 3.94652344 -6.08789062 3.95117188 C-4.39188932 3.96286844 -2.69593297 3.98080076 -1 4 C-0.67 2.68 -0.34 1.36 0 0 Z " fill="#E60020" transform="translate(182,100)"/>
<path d="M0 0 C3.38733791 1.12911264 3.82007794 1.76950026 5.77734375 4.60546875 C6.29103516 5.34216797 6.80472656 6.07886719 7.33398438 6.83789062 C7.86314453 7.61326172 8.39230469 8.38863281 8.9375 9.1875 C9.46279297 9.94353516 9.98808594 10.69957031 10.52929688 11.47851562 C13.40006248 15.62118489 16.21821795 19.79716302 19 24 C17.54254576 27.36335594 15.68882146 29.54534005 13.0859375 32.109375 C12.32539062 32.86347656 11.56484375 33.61757812 10.78125 34.39453125 C9.9871875 35.17183594 9.193125 35.94914062 8.375 36.75 C7.57320312 37.54277344 6.77140625 38.33554688 5.9453125 39.15234375 C3.96797154 41.10614493 1.98611091 43.05512103 0 45 C-4.46066039 43.32333491 -8.05640079 40.99967881 -11.875 38.1875 C-12.46152344 37.76146484 -13.04804687 37.33542969 -13.65234375 36.89648438 C-14.83307681 36.03883102 -16.01245153 35.17930437 -17.19042969 34.31787109 C-20.11165412 32.19040624 -23.05653872 30.09655746 -26 28 C-24.48402563 22.78385133 -21.15719544 19.52348309 -17.5 15.6875 C-16.87504639 15.02685547 -16.25009277 14.36621094 -15.60620117 13.68554688 C-5.40150601 3.05625488 -5.40150601 3.05625488 0 0 Z " fill="#F0ECEC" transform="translate(109,83)"/>
<path d="M0 0 C5.21652341 1.51608329 8.4758741 4.84313311 12.3125 8.5 C12.97386963 9.12422852 13.63523926 9.74845703 14.31665039 10.39160156 C19.32822539 15.19454045 24.21292304 20.1439449 28 26 C28 26.66 28 27.32 28 28 C25.90757533 29.64921656 23.8158973 31.17911471 21.625 32.6875 C20.99319824 33.13013184 20.36139648 33.57276367 19.71044922 34.02880859 C17.81084134 35.35819755 15.90553044 36.67912095 14 38 C12.0413029 39.37448176 10.08291102 40.74939872 8.125 42.125 C6.75050279 43.08405432 5.37572057 44.04270136 4 45 C0.63664406 43.54254576 -1.54534005 41.68882146 -4.109375 39.0859375 C-4.86347656 38.32539062 -5.61757812 37.56484375 -6.39453125 36.78125 C-7.17183594 35.9871875 -7.94914063 35.193125 -8.75 34.375 C-9.54277344 33.57320312 -10.33554688 32.77140625 -11.15234375 31.9453125 C-13.10614493 29.96797154 -15.05512103 27.98611091 -17 26 C-15.32333491 21.53933961 -12.99967881 17.94359921 -10.1875 14.125 C-9.76146484 13.53847656 -9.33542969 12.95195313 -8.89648438 12.34765625 C-8.03883102 11.16692319 -7.17930437 9.98754847 -6.31787109 8.80957031 C-4.19040624 5.88834588 -2.09655746 2.94346128 0 0 Z " fill="#F0ECED" transform="translate(249,83)"/>
<path d="M0 0 C3.36335594 1.45745424 5.54534005 3.31117854 8.109375 5.9140625 C8.86347656 6.67460937 9.61757812 7.43515625 10.39453125 8.21875 C11.17183594 9.0128125 11.94914062 9.806875 12.75 10.625 C13.54277344 11.42679688 14.33554688 12.22859375 15.15234375 13.0546875 C17.10614493 15.03202846 19.05512103 17.01388909 21 19 C19.68707558 22.64014417 18.10092153 25.48630185 15.77734375 28.57421875 C14.84631836 29.82235352 14.84631836 29.82235352 13.89648438 31.09570312 C13.25001953 31.95099609 12.60355469 32.80628906 11.9375 33.6875 C10.65370245 35.39880596 9.37109002 37.11100183 8.08984375 38.82421875 C7.23700806 39.95476685 7.23700806 39.95476685 6.36694336 41.1081543 C4.95570353 42.95414201 4.95570353 42.95414201 4 45 C-1.21652341 43.48391671 -4.4758741 40.15686689 -8.3125 36.5 C-8.97386963 35.87577148 -9.63523926 35.25154297 -10.31665039 34.60839844 C-15.32822539 29.80545955 -20.21292304 24.8560551 -24 19 C-24 18.34 -24 17.68 -24 17 C-22.44287109 15.64306641 -22.44287109 15.64306641 -20.2734375 14.1015625 C-19.48839844 13.53953125 -18.70335938 12.9775 -17.89453125 12.3984375 C-17.06308594 11.81320313 -16.23164062 11.22796875 -15.375 10.625 C-14.56675781 10.0475 -13.75851563 9.47 -12.92578125 8.875 C-8.66543073 5.84079914 -4.37137474 2.8718093 0 0 Z " fill="#F0EDED" transform="translate(107,232)"/>
<path d="M0 0 C3.32679019 1.22133133 6.01037612 2.54946565 8.8125 4.71484375 C9.49570312 5.23626953 10.17890625 5.75769531 10.8828125 6.29492188 C11.58148438 6.83697266 12.28015625 7.37902344 13 7.9375 C19.28044034 12.78833212 19.28044034 12.78833212 26 17 C24.48391671 22.21652341 21.15686689 25.4758741 17.5 29.3125 C16.87577148 29.97386963 16.25154297 30.63523926 15.60839844 31.31665039 C10.80545955 36.32822539 5.8560551 41.21292304 0 45 C-0.66 45 -1.32 45 -2 45 C-3.64921656 42.90757533 -5.17911471 40.8158973 -6.6875 38.625 C-7.13013184 37.99319824 -7.57276367 37.36139648 -8.02880859 36.71044922 C-9.35819755 34.81084134 -10.67912095 32.90553044 -12 31 C-13.37448176 29.0413029 -14.74939872 27.08291102 -16.125 25.125 C-17.08405432 23.75050279 -18.04270136 22.37572057 -19 21 C-17.54254576 17.63664406 -15.68882146 15.45465995 -13.0859375 12.890625 C-12.32539063 12.13652344 -11.56484375 11.38242188 -10.78125 10.60546875 C-9.9871875 9.82816406 -9.193125 9.05085937 -8.375 8.25 C-7.57320312 7.45722656 -6.77140625 6.66445312 -5.9453125 5.84765625 C-3.96797154 3.89385507 -1.98611091 1.94487897 0 0 Z " fill="#F0EDEE" transform="translate(251,232)"/>
<path d="M0 0 C3.65702903 3.65702903 2.11139642 14.20432232 2.125 19.0625 C2.08360247 33.83279507 2.08360247 33.83279507 0 38 C-10.22204417 37.48445342 -19.94586748 35.88004104 -30 34 C-30 24.1 -30 14.2 -30 4 C-24.245625 3.01 -24.245625 3.01 -18.375 2 C-17.17665527 1.79117188 -15.97831055 1.58234375 -14.74365234 1.3671875 C-13.78410645 1.20476562 -12.82456055 1.04234375 -11.8359375 0.875 C-10.86188965 0.70742187 -9.8878418 0.53984375 -8.88427734 0.3671875 C-5.87979931 -0.01530234 -3.02533245 -0.13141716 0 0 Z " fill="#F0EDED" transform="translate(298,161)"/>
<path d="M0 0 C9.9 0 19.8 0 30 0 C30.66 3.83625 31.32 7.6725 32 11.625 C32.20882812 12.82334473 32.41765625 14.02168945 32.6328125 15.25634766 C32.87644531 16.6956665 32.87644531 16.6956665 33.125 18.1640625 C33.37636719 19.62513428 33.37636719 19.62513428 33.6328125 21.11572266 C34.01530234 24.12020069 34.13141716 26.97466755 34 30 C30.35304646 33.64695354 19.8482752 32.11134609 15 32.125 C-1.92265827 32.07734173 -1.92265827 32.07734173 -4 30 C-3.93244925 19.86738753 -1.85445764 9.91731695 0 0 Z " fill="#F0EEEE" transform="translate(165,268)"/>
<path d="M0 0 C6.89988784 0.23880838 13.81103188 1.50786132 20.625 2.5625 C23.71875 3.036875 26.8125 3.51125 30 4 C30 13.9 30 23.8 30 34 C25.6275 34.680625 21.255 35.36125 16.75 36.0625 C14.69023926 36.38939819 14.69023926 36.38939819 12.58886719 36.72290039 C11.50250977 36.88781982 10.41615234 37.05273926 9.296875 37.22265625 C8.18666992 37.39547119 7.07646484 37.56828613 5.93261719 37.74633789 C3.25129009 37.9782642 1.51898933 37.86020806 -1 37 C-2.37083884 25.22547351 -3.11215251 12.7341806 -1 1 C-0.67 0.67 -0.34 0.34 0 0 Z " fill="#F0EFEF" transform="translate(62,161)"/>
<path d="M0 0 C-0.08564209 0.62455078 -0.17128418 1.24910156 -0.25952148 1.89257812 C-0.65266539 4.76165261 -1.04508744 7.6308254 -1.4375 10.5 C-1.57220703 11.48226562 -1.70691406 12.46453125 -1.84570312 13.4765625 C-1.97783203 14.44335938 -2.10996094 15.41015625 -2.24609375 16.40625 C-2.42676392 17.72592773 -2.42676392 17.72592773 -2.61108398 19.07226562 C-3.09460406 22.71217315 -3.54455907 26.35647258 -4 30 C-13.9 30 -23.8 30 -34 30 C-34.66 25.978125 -35.32 21.95625 -36 17.8125 C-36.20882812 16.55284424 -36.41765625 15.29318848 -36.6328125 13.99536133 C-36.87644531 12.49138794 -36.87644531 12.49138794 -37.125 10.95703125 C-37.29257813 9.93585205 -37.46015625 8.91467285 -37.6328125 7.86254883 C-37.97561063 5.19013656 -38.14390542 2.68953243 -38 0 C-32.74250354 -5.25749646 -6.23216709 -3.11608354 0 0 Z " fill="#F0EFEF" transform="translate(199,62)"/>
<path d="M0 0 C0.99 0 1.98 0 3 0 C2.86722656 1.02738281 2.73445313 2.05476562 2.59765625 3.11328125 C1.58056202 11.06545843 0.64351028 19.00692489 0 27 C-1.32 27.33 -2.64 27.66 -4 28 C-4.42029825 18.62890566 -3.52536767 10.05468614 -1 1 C-0.67 0.67 -0.34 0.34 0 0 Z " fill="#EFD2D6" transform="translate(104,154)"/>
<path d="M0 0 C0.99 0 1.98 0 3 0 C3.47545004 9.45617311 2.10435896 17.83100739 0 27 C-1.32 27.33 -2.64 27.66 -4 28 C-3.11363136 20.4025545 -3.11363136 20.4025545 -2.49609375 18.21484375 C-1.61612765 14.28617622 -1.59718922 10.23648666 -1.39453125 6.22460938 C-1.10240974 1.10240974 -1.10240974 1.10240974 0 0 Z " fill="#EFD6D9" transform="translate(257,178)"/>
<path d="M0 0 C0.99 0 1.98 0 3 0 C2.59849759 4.95490469 0.05768669 7.62958758 -3.25 11.0625 C-3.72824219 11.57876953 -4.20648438 12.09503906 -4.69921875 12.62695312 C-7.58929039 15.70108082 -10.50047747 18.61552141 -14 21 C-15.32 21 -16.64 21 -18 21 C-17.63652399 18.3345093 -17.2665223 17.23444632 -15.21484375 15.4296875 C-14.46332031 14.91664063 -13.71179688 14.40359375 -12.9375 13.875 C-8.28450078 10.46873741 -5.09540633 6.5926289 -1.7265625 1.94140625 C-1.15679687 1.30074219 -0.58703125 0.66007813 0 0 Z " fill="#EFD7DA" transform="translate(242,224)"/>
<path d="M0 0 C0 1.32 0 2.64 0 4 C-0.99 4.04898438 -1.98 4.09796875 -3 4.1484375 C-9.88139379 4.52565531 -16.34263326 5.1158396 -23 7 C-24.32 7 -25.64 7 -27 7 C-26.67 5.68 -26.34 4.36 -26 3 C-17.19421143 0.81157917 -9.08009321 -0.4490156 0 0 Z " fill="#EFDADD" transform="translate(181,100)"/>
<path d="M0 0 C0 0.99 0 1.98 0 3 C-9.07776137 6.86495028 -18.23835675 7.30664848 -28 7 C-27.67 5.68 -27.34 4.36 -27 3 C-25.99839844 2.95101562 -24.99679688 2.90203125 -23.96484375 2.8515625 C-22.62237241 2.77645921 -21.2799257 2.70091474 -19.9375 2.625 C-18.62652344 2.55539063 -17.31554687 2.48578125 -15.96484375 2.4140625 C-10.45949133 1.83911929 -5.56627541 -0.33735003 0 0 Z " fill="#EFD6DA" transform="translate(206,253)"/>
<path d="M0 0 C-0.44188532 4.36863891 -3.02852303 6.07769001 -6.25 8.8125 C-9.56322411 11.67750196 -12.57152294 14.44480792 -15 18.125 C-15.66 19.07375 -16.32 20.0225 -17 21 C-17.99 21 -18.98 21 -20 21 C-19.12250076 13.06004716 -11.79629487 7.47674175 -6.125 2.375 C-3 0 -3 0 0 0 Z " fill="#EFDADD" transform="translate(135,115)"/>
<path d="M0 0 C5.95284333 -0.66353349 9.7237273 1.56442556 14.75 4.375 C15.51699219 4.7875 16.28398437 5.2 17.07421875 5.625 C22.67805864 8.67805864 22.67805864 8.67805864 25 11 C25 11.99 25 12.98 25 14 C22.19960933 13.38392179 19.83322684 12.53143041 17.28515625 11.22265625 C16.59873047 10.87396484 15.91230469 10.52527344 15.20507812 10.16601562 C14.49802734 9.80185547 13.79097656 9.43769531 13.0625 9.0625 C8.76516744 6.86065866 4.53071646 4.69347719 0 3 C0 2.01 0 1.02 0 0 Z " fill="#EFDADC" transform="translate(202,104)"/>
<path d="M0 0 C1.84765625 0.15234375 1.84765625 0.15234375 4 1 C5.30859375 3.44140625 5.30859375 3.44140625 6.4375 6.5625 C8.22620539 11.23424297 10.18267497 15.21323011 13.08203125 19.28125 C14 21 14 21 14 25 C13.01 25 12.02 25 11 25 C9.72428516 22.8152247 8.45439327 20.62738381 7.1875 18.4375 C6.65286133 17.52387695 6.65286133 17.52387695 6.10742188 16.59179688 C0 6.00186353 0 6.00186353 0 0 Z " fill="#EFDBDE" transform="translate(104,203)"/>
<path d="M0 0 C0.99 0 1.98 0 3 0 C4.49286421 2.00152157 5.74971288 3.9168005 7 6.0625 C7.680625 7.18785156 8.36125 8.31320313 9.0625 9.47265625 C11.86301571 14.40656902 14.53013 19.16856995 14 25 C13.01 25 12.02 25 11 25 C10.70867187 24.23816406 10.41734375 23.47632813 10.1171875 22.69140625 C7.6848305 16.56462023 5.10469183 11.21480425 1.13671875 5.9375 C0 4 0 4 0 0 Z " fill="#EFDADD" transform="translate(242,132)"/>
<path d="M0 0 C3.86693643 0.56806323 6.42681455 1.68362273 9.6875 3.8125 C14.58807188 6.87075162 19.57859645 9.0390668 25 11 C25 11.99 25 12.98 25 14 C19.67896482 13.49583021 15.55667464 12.12901366 10.8125 9.625 C10.20986328 9.32078125 9.60722656 9.0165625 8.98632812 8.703125 C2.62275959 5.43402503 2.62275959 5.43402503 0 3 C0 2.01 0 1.02 0 0 Z " fill="#EFDADD" transform="translate(132,242)"/>
<path d="M0 0 C0 0.99 0 1.98 0 3 C-2.60060504 4.34070318 -5.20504916 5.67273354 -7.8125 7 C-8.55048828 7.3815625 -9.28847656 7.763125 -10.04882812 8.15625 C-10.76103516 8.5171875 -11.47324219 8.878125 -12.20703125 9.25 C-12.8616333 9.58515625 -13.51623535 9.9203125 -14.19067383 10.265625 C-16 11 -16 11 -19 11 C-14.04571241 5.02068739 -7.24795654 2.41598551 0 0 Z " fill="#B9031B" transform="translate(153,104)"/>
<path d="M0 0 C0.66 0.33 1.32 0.66 2 1 C1.06614465 3.06415277 0.12775697 5.12625539 -0.8125 7.1875 C-1.33457031 8.33605469 -1.85664063 9.48460937 -2.39453125 10.66796875 C-3.79663774 13.57793672 -5.17025886 16.33810261 -7 19 C-7.66 19 -8.32 19 -9 19 C-7.39369175 14.75707468 -5.4231838 10.72974893 -3.375 6.6875 C-3.05015625 6.04232422 -2.7253125 5.39714844 -2.390625 4.73242188 C-1.59558044 3.15402459 -0.79804366 1.57688306 0 0 Z " fill="#B80119" transform="translate(254,206)"/>
<path d="M0 0 C0.66 0 1.32 0 2 0 C2.13277344 1.01320312 2.26554687 2.02640625 2.40234375 3.0703125 C2.58067584 4.42188204 2.75906425 5.77344414 2.9375 7.125 C3.02451172 7.79015625 3.11152344 8.4553125 3.20117188 9.140625 C3.72630558 13.10830188 4.31814014 17.05626998 5 21 C4.34 21 3.68 21 3 21 C0.8456962 16.5600324 0.58254154 12.52581226 0.375 7.6875 C0.33632812 6.94693359 0.29765625 6.20636719 0.2578125 5.44335938 C0.16418295 3.62928691 0.08103149 1.81467884 0 0 Z " fill="#B80119" transform="translate(100,182)"/>
<path d="M0 0 C0.66 0 1.32 0 2 0 C0.39369175 4.24292532 -1.5768162 8.27025107 -3.625 12.3125 C-3.94984375 12.95767578 -4.2746875 13.60285156 -4.609375 14.26757812 C-5.40441956 15.84597541 -6.20195634 17.42311694 -7 19 C-7.66 19 -8.32 19 -9 19 C-7.33509886 11.88633148 -4.03505157 6.05257736 0 0 Z " fill="#B70019" transform="translate(113,135)"/>
<path d="M0 0 C0.90878906 0.19916016 0.90878906 0.19916016 1.8359375 0.40234375 C7.87728368 1.67567364 13.84737892 2.50255404 20 3 C20 3.66 20 4.32 20 5 C13.04958914 5.26618595 6.76485645 4.6120509 0 3 C0 2.01 0 1.02 0 0 Z " fill="#B70019" transform="translate(158,255)"/>
<path d="M0 0 C0 0.66 0 1.32 0 2 C-5.80044413 5.48026648 -11.81445406 8.27075369 -18 11 C-18 10.01 -18 9.02 -18 8 C-15.3773768 6.66180502 -12.75213401 5.3292849 -10.125 4 C-9.00544922 3.42765625 -9.00544922 3.42765625 -7.86328125 2.84375 C-7.14785156 2.4828125 -6.43242187 2.121875 -5.6953125 1.75 C-5.03547363 1.41484375 -4.37563477 1.0796875 -3.69580078 0.734375 C-2 0 -2 0 0 0 Z " fill="#B80119" transform="translate(225,245)"/>
<path d="M0 0 C3 0 3 0 4.61328125 1.5390625 C5.45439453 2.57160156 5.45439453 2.57160156 6.3125 3.625 C9.37895211 7.2916938 12.5795363 10.66296224 16 14 C15.67 14.66 15.34 15.32 15 16 C13.05529254 14.27840626 11.11942691 12.54833744 9.1875 10.8125 C8.64029297 10.32974609 8.09308594 9.84699219 7.52929688 9.34960938 C4.35712035 6.48503784 2.00250792 3.84340994 0 0 Z " fill="#B70018" transform="translate(116,228)"/>
<path d="M0 0 C0.66 0.33 1.32 0.66 2 1 C4.12822089 7.50289716 4.25939145 14.22700102 4 21 C3.34 21 2.68 21 2 21 C1.86722656 19.97519531 1.73445313 18.95039063 1.59765625 17.89453125 C1.41935912 16.5338426 1.24096877 15.17316615 1.0625 13.8125 C0.97548828 13.13896484 0.88847656 12.46542969 0.79882812 11.77148438 C0.41329915 8.84431993 -0.00822458 5.96173782 -0.62890625 3.07421875 C-0.75136719 2.38972656 -0.87382812 1.70523438 -1 1 C-0.67 0.67 -0.34 0.34 0 0 Z " fill="#B80119" transform="translate(256,157)"/>
<path d="M0 0 C5.87874404 4.03113877 10.50891698 8.47035403 15 14 C14.67 14.66 14.34 15.32 14 16 C13.15695313 15.14535156 12.31390625 14.29070312 11.4453125 13.41015625 C10.33867407 12.29413953 9.23189598 11.17826128 8.125 10.0625 C7.56941406 9.49853516 7.01382813 8.93457031 6.44140625 8.35351562 C3.5078429 5.30139972 3.5078429 5.30139972 0 3 C0 2.01 0 1.02 0 0 Z " fill="#B70018" transform="translate(228,116)"/>
<path d="M0 0 C7.34918342 -0.43230491 13.90215087 1.18225815 21 3 C20.67 3.66 20.34 4.32 20 5 C19.39414063 4.86722656 18.78828125 4.73445313 18.1640625 4.59765625 C12.12271632 3.32432636 6.15262108 2.49744596 0 2 C0 1.34 0 0.68 0 0 Z " fill="#B70018" transform="translate(182,100)"/>
<path d="M0 0 C0.99 0 1.98 0 3 0 C2.67 2.31 2.34 4.62 2 7 C1.34 6.67 0.68 6.34 0 6 C-0.66 7.98 -1.32 9.96 -2 12 C-3.12377697 8.69564916 -2.89554742 6.9493138 -1.5625 3.75 C-1.27503906 3.04359375 -0.98757812 2.3371875 -0.69140625 1.609375 C-0.46324219 1.07828125 -0.23507813 0.5471875 0 0 Z " fill="#EEC1C7" transform="translate(104,154)"/>
<path d="M0 0 C-0.94875 0.268125 -1.8975 0.53625 -2.875 0.8125 C-6.25267273 1.74986588 -6.25267273 1.74986588 -8 5 C-9.32 5 -10.64 5 -12 5 C-11.67 3.68 -11.34 2.36 -11 1 C-3.57142857 -1.42857143 -3.57142857 -1.42857143 0 0 Z " fill="#EEC6CB" transform="translate(166,102)"/>
</svg>
