<?xml version="1.0" encoding="UTF-8"?>
<svg version="1.1" xmlns="http://www.w3.org/2000/svg" width="1024" height="1024">
<path d="M0 0 C337.92 0 675.84 0 1024 0 C1024 337.92 1024 675.84 1024 1024 C686.08 1024 348.16 1024 0 1024 C0 686.08 0 348.16 0 0 Z " fill="#F4E9D8" transform="translate(0,0)"/>
<path d="M0 0 C2.48506988 2.34027053 4.91236054 4.72501585 7.32421875 7.140625 C8.89399478 8.70793671 10.48412272 10.25536262 12.1015625 11.7734375 C29.50379803 28.36085263 41.59913439 50.22267643 49.8125 72.625 C50.46992187 71.24054688 50.46992187 71.24054688 51.140625 69.828125 C58.83810789 53.88970987 67.61956607 38.38458947 78.8125 24.625 C79.43608398 23.8513208 79.43608398 23.8513208 80.07226562 23.06201172 C97.71138739 1.27442983 118.12463413 -15.94894987 144.8125 -25.375 C145.86824219 -25.75398437 146.92398437 -26.13296875 148.01171875 -26.5234375 C162.29520168 -31.29057233 176.99775908 -32.90459648 191.98974609 -32.82104492 C194.31306849 -32.81249791 196.63394619 -32.841535 198.95703125 -32.87304688 C210.02125592 -32.92504485 220.14398073 -31.24199622 230.8125 -28.375 C232.31901123 -27.97535034 232.31901123 -27.97535034 233.85595703 -27.56762695 C257.32366421 -20.92149024 277.15248535 -9.06812173 294.8125 7.625 C295.62332031 8.37136719 296.43414063 9.11773437 297.26953125 9.88671875 C323.41410585 34.7961166 336.28511607 71.03196349 338.00512695 106.609375 C338.06648424 109.9616579 338.09426281 113.30703913 338.07324219 116.65942383 C338.06248374 118.69056891 338.07324148 120.72083376 338.0859375 122.75195312 C338.12039632 152.03178953 329.21500676 180.38131968 316.8125 206.625 C316.50618652 207.28145508 316.19987305 207.93791016 315.88427734 208.61425781 C300.92026821 240.48250416 279.79079699 269.27859268 257.8125 296.625 C257.2983252 297.2653418 256.78415039 297.90568359 256.25439453 298.56542969 C246.08848119 311.20182183 235.7337394 323.63113887 224.8125 335.625 C223.26953744 337.33216297 221.72787206 339.04049925 220.1875 340.75 C219.51460937 341.49507812 218.84171875 342.24015625 218.1484375 343.0078125 C216.23949447 345.14659482 214.35328051 347.30130068 212.47265625 349.46484375 C209.02349621 353.41201085 205.47275957 357.25090122 201.875 361.0625 C200.55076442 362.46873415 199.22654625 363.8749847 197.90234375 365.28125 C197.22671387 365.99796875 196.55108398 366.7146875 195.85498047 367.453125 C193.85691216 369.57777425 191.86679797 371.70958039 189.87890625 373.84375 C182.29333189 381.97155455 174.59037149 389.95008159 166.65869141 397.74194336 C162.76228658 401.58856448 159.07171914 405.53713096 155.49829102 409.68530273 C152.84625732 412.7367738 150.07766755 415.67634976 147.3125 418.625 C143.36131706 422.85781159 139.46546542 427.11844409 135.68359375 431.50390625 C133.10857008 434.42298318 130.45943744 437.2711885 127.8125 440.125 C124.00532778 444.23081971 120.24936556 448.36628226 116.5859375 452.6015625 C114.36111908 455.14001171 112.08746681 457.63141776 109.8125 460.125 C106.35606229 463.91509082 102.94406146 467.73556033 99.58203125 471.609375 C97.56135044 473.91107764 95.49937382 476.17264379 93.4375 478.4375 C90.36503227 481.83583552 87.42807378 485.30090523 84.5625 488.875 C80.984001 493.30433093 77.21247685 497.48197785 73.3125 501.625 C67.85789781 507.42110771 62.77741063 513.40079811 57.8125 519.625 C56.15528737 521.63315177 54.48462492 523.629238 52.8125 525.625 C49.84132526 524.30962163 47.98228474 522.98121334 45.89453125 520.5 C45.36698242 519.88092773 44.83943359 519.26185547 44.29589844 518.62402344 C43.46880371 517.63450684 43.46880371 517.63450684 42.625 516.625 C41.46044814 515.25451731 40.29508156 513.88472652 39.12890625 512.515625 C38.56187988 511.84724609 37.99485352 511.17886719 37.41064453 510.49023438 C35.34132278 508.0750773 33.20874609 505.72186521 31.0625 503.375 C28.00138247 500.00609186 25.10241549 496.54729694 22.25 493 C18.94302448 488.91085288 15.4743538 485.17501267 11.70703125 481.51171875 C9.21748825 479.03244191 6.93733647 476.40246263 4.64453125 473.7421875 C-1.17672767 467.01484776 -7.2254336 460.48655237 -13.24780273 453.93969727 C-15.70469041 451.26293082 -18.12910603 448.56560358 -20.5 445.8125 C-24.47213513 441.23073262 -28.63649294 436.82908291 -32.78344727 432.40625 C-36.53448806 428.40407894 -40.24964817 424.37286211 -43.9375 420.3125 C-48.14060584 415.70762669 -52.49418666 411.29394577 -56.9296875 406.9140625 C-58.89891243 404.91758186 -60.74509506 402.88347536 -62.5625 400.75 C-66.08346761 396.62829858 -69.92017481 392.86440676 -73.77368164 389.05834961 C-77.21868249 385.63938561 -80.4654546 382.11456906 -83.61328125 378.41796875 C-85.2351719 376.57070371 -86.93410205 374.84743286 -88.6875 373.125 C-90.98076036 370.86702057 -93.15178028 368.56503496 -95.25 366.125 C-98.78584195 362.01989552 -102.48083717 358.07503203 -106.1875 354.125 C-110.36633074 349.66830556 -114.50900582 345.20010755 -118.4921875 340.56640625 C-120.63905051 338.10790184 -122.85287132 335.714711 -125.0625 333.3125 C-129.1531056 328.82702448 -133.03567843 324.21919456 -136.84765625 319.49609375 C-138.92469814 316.94746973 -141.0369847 314.43794436 -143.17285156 311.93896484 C-148.82756593 305.3206045 -154.27766225 298.56859707 -159.59765625 291.67871094 C-160.71850833 290.23082892 -161.84394412 288.7864896 -162.97265625 287.34472656 C-206.12758373 232.20478072 -241.30237567 168.54468042 -233.5 96.25 C-229.75696853 66.33734981 -219.97530946 38.63854213 -200.1875 15.625 C-199.35089844 14.63628906 -198.51429688 13.64757812 -197.65234375 12.62890625 C-192.0356634 6.2111146 -185.96197419 0.79148804 -179.1875 -4.375 C-177.84171875 -5.40947266 -177.84171875 -5.40947266 -176.46875 -6.46484375 C-125.15024498 -44.87998903 -48.05665259 -43.12283626 0 0 Z " fill="#CC2B19" transform="translate(461.1875,265.375)"/>
<path d="M0 0 C-1.39347376 3.15204981 -3.02485079 5.26171773 -5.4765625 7.671875 C-6.48203125 8.66767578 -6.48203125 8.66767578 -7.5078125 9.68359375 C-8.20648437 10.36550781 -8.90515625 11.04742188 -9.625 11.75 C-10.33140625 12.44738281 -11.0378125 13.14476562 -11.765625 13.86328125 C-13.50598703 15.58012488 -15.25084981 17.29211832 -17 19 C-17 16 -17 16 -15.03125 13.94921875 C-13.34762602 12.44486954 -11.66013257 10.94483945 -9.96875 9.44921875 C-7.53843753 6.42579431 -7.60705543 4.78209147 -8 1 C-4.93251126 -0.86240388 -3.40254489 -1.2151946 0 0 Z " fill="#C91E11" transform="translate(643,646)"/>
<path d="M0 0 C0.433125 0.474375 0.86625 0.94875 1.3125 1.4375 C3.02309613 3.23686957 3.02309613 3.23686957 6 4 C6 5.32 6 6.64 6 8 C6.55806448 14.26472388 9.3296179 19.20946692 12.29296875 24.640625 C13.24488924 26.40116611 14.12859242 28.19824906 15 30 C14.67 30.66 14.34 31.32 14 32 C0 6.024 0 6.024 0 0 Z " fill="#C71C0E" transform="translate(241,455)"/>
<path d="M0 0 C4.84711222 3.85565744 9.10288051 8.09744679 13.3125 12.625 C13.84004883 13.18727295 14.36759766 13.7495459 14.91113281 14.32885742 C17.41380191 17.05137736 19.60944977 19.54469337 21 23 C17.7369879 21.9123293 17.12160072 21.24933287 15 18.6875 C12.75368683 16.02573966 10.47611858 13.41475924 8.09765625 10.87109375 C7.59685547 10.33460205 7.09605469 9.79811035 6.58007812 9.24536133 C5.57570151 8.17295985 4.56792897 7.10372791 3.55664062 6.0378418 C0 2.22067103 0 2.22067103 0 0 Z " fill="#F7EEE6" transform="translate(452,724)"/>
<path d="M0 0 C0 2.62113708 -0.31292445 4.50935112 -1 7 C-1.66 7 -2.32 7 -3 7 C-3.33 7.99 -3.66 8.98 -4 10 C-6.0625 11.1875 -6.0625 11.1875 -8 12 C-6.49087042 7.01987239 -3.44338151 3.75740058 0 0 Z " fill="#C81F12" transform="translate(259,284)"/>
<path d="M0 0 C1.43410153 3.78819273 0.51009497 6.06521279 -0.9375 9.75 C-1.31777344 10.73484375 -1.69804688 11.7196875 -2.08984375 12.734375 C-2.39019531 13.48203125 -2.69054687 14.2296875 -3 15 C-3.33 15 -3.66 15 -4 15 C-4 12.69 -4 10.38 -4 8 C-3.34 8 -2.68 8 -2 8 C-1.7834375 6.576875 -1.7834375 6.576875 -1.5625 5.125 C-1 2 -1 2 0 0 Z " fill="#C6180C" transform="translate(792,429)"/>
<path d="M0 0 C0.89203125 0.00902344 1.7840625 0.01804688 2.703125 0.02734375 C3.37859375 0.03894531 4.0540625 0.05054688 4.75 0.0625 C4.75 0.3925 4.75 0.7225 4.75 1.0625 C0.24646738 2.81997614 -3.42639811 3.25544408 -8.25 3.0625 C-8.58 2.4025 -8.91 1.7425 -9.25 1.0625 C-6.09493858 0.12630187 -3.28413498 -0.0432123 0 0 Z " fill="#C81C12" transform="translate(636.25,233.9375)"/>
<path d="M0 0 C0.66 0.99 1.32 1.98 2 3 C0.63016497 6.16115776 0.0109362 6.9927092 -3 9 C-3.33 7.35 -3.66 5.7 -4 4 C-3.34 4 -2.68 4 -2 4 C-2 3.34 -2 2.68 -2 2 C-1.34 2 -0.68 2 0 2 C0 1.34 0 0.68 0 0 Z " fill="#C92112" transform="translate(596,691)"/>
<path d="M0 0 C2 1 2 1 3.125 3.6875 C3.98889074 6.9579435 4.16013991 9.63706182 4 13 C2.66666667 10.33333333 1.33333333 7.66666667 0 5 C-0.66 5 -1.32 5 -2 5 C-1.34 3.35 -0.68 1.7 0 0 Z " fill="#C92113" transform="translate(789,327)"/>
<path d="M0 0 C-1.26941497 3.91402949 -2.51167694 5.79072873 -6 8 C-5.67 6.68 -5.34 5.36 -5 4 C-5.66 3.67 -6.32 3.34 -7 3 C-4.49955934 -0.00052879 -4.2621484 0 0 0 Z " fill="#C91F12" transform="translate(723,555)"/>
<path d="M0 0 C0.33 0 0.66 0 1 0 C1.25 7.625 1.25 7.625 -1 11 C-1.309375 10.05125 -1.61875 9.1025 -1.9375 8.125 C-2.87394742 5.13919592 -2.87394742 5.13919592 -4 3 C-2.68 3 -1.36 3 0 3 C0 2.01 0 1.02 0 0 Z " fill="#C71B0E" transform="translate(796,406)"/>
<path d="M0 0 C0.33 0.99 0.66 1.98 1 3 C-1.64 5.31 -4.28 7.62 -7 10 C-7.66 9.67 -8.32 9.34 -9 9 C-6.03 6.03 -3.06 3.06 0 0 Z " fill="#F7F5EC" transform="translate(621,670)"/>
<path d="M0 0 C0.33 0.66 0.66 1.32 1 2 C0.67 2.66 0.34 3.32 0 4 C0.66 4.33 1.32 4.66 2 5 C1.34 5 0.68 5 0 5 C-0.33 5.66 -0.66 6.32 -1 7 C-3.0625 8.125 -3.0625 8.125 -5 9 C-4.3566152 7.686298 -3.71021785 6.37407102 -3.0625 5.0625 C-2.70285156 4.33160156 -2.34320312 3.60070312 -1.97265625 2.84765625 C-1 1 -1 1 0 0 Z " fill="#F7F1E6" transform="translate(766,494)"/>
<path d="M0 0 C0.99 0 1.98 0 3 0 C1.55746343 3.36591866 -0.33264727 5.51047079 -3 8 C-2.45276317 4.62537285 -1.9451 2.91765 0 0 Z " fill="#F7F0E4" transform="translate(771,485)"/>
<path d="M0 0 C0.99 0.33 1.98 0.66 3 1 C3 1.66 3 2.32 3 3 C4.32 3.66 5.64 4.32 7 5 C7 5.99 7 6.98 7 8 C5.2925002 6.71937515 3.62626404 5.38232443 2 4 C2 3.34 2 2.68 2 2 C1.34 2 0.68 2 0 2 C0 1.34 0 0.68 0 0 Z " fill="#F1DAD0" transform="translate(466,269)"/>
<path d="M0 0 C1.37562854 1.28965176 2.70766393 2.62689293 4 4 C4 4.66 4 5.32 4 6 C3.34 6 2.68 6 2 6 C2.33 7.32 2.66 8.64 3 10 C2.34 10 1.68 10 1 10 C0.67 6.7 0.34 3.4 0 0 Z " fill="#CF3A26" transform="translate(231,342)"/>
<path d="M0 0 C2.64 0.33 5.28 0.66 8 1 C7.01 1.495 7.01 1.495 6 2 C6 2.66 6 3.32 6 4 C3.03 3.505 3.03 3.505 0 3 C0 2.01 0 1.02 0 0 Z " fill="#CD3523" transform="translate(336,235)"/>
</svg>
